<svg width="21" height="23" viewBox="0 0 21 23" fill="none" xmlns="http://www.w3.org/2000/svg">
<path d="M1.32976 4.88268C0.728629 5.18055 0.349106 5.78811 0.349106 6.45258V12.7975L10.3639 17.7821L15.3796 15.2633L15.3721 13.3174C15.3707 12.9846 15.1791 12.6811 14.8772 12.5336L7.83032 9.09197L7.83108 9.09071L9.97097 8.05574C10.2187 7.93594 10.5087 7.93659 10.7559 8.05743L17.4207 11.3165C17.7235 11.4646 17.9152 11.7696 17.9152 12.1035V15.9712C17.9152 16.3043 17.7245 16.6087 17.4228 16.7572L10.3639 20.2322L0.349106 15.2757V16.6948C0.349106 17.361 0.730601 17.9698 1.33414 18.2669L9.57293 22.3212C10.0711 22.5663 10.6568 22.5668 11.1553 22.3223L19.4288 18.2662C20.0336 17.9697 20.4162 17.3601 20.4162 16.693V10.3213L10.3639 5.3686L5.32734 7.85866L5.30686 7.87147L5.32284 9.78198C5.32561 10.1117 5.51508 10.4121 5.81346 10.5598L12.8465 14.0413L10.7664 15.1089C10.5135 15.2387 10.213 15.2408 9.95833 15.1146L3.34121 11.8357C3.04064 11.6868 2.85088 11.383 2.85088 11.0508V6.60188C2.85088 6.60188 7.43283 4.3433 10.3639 2.89613C14.2879 4.82721 20.4162 7.84098 20.4162 7.84098V6.45438C20.4162 5.78898 20.0356 5.18072 19.4332 4.88332L11.1597 0.799146C10.6587 0.551848 10.0691 0.552285 9.56855 0.800325L1.32976 4.88268Z" fill="white"/>
</svg>
