<svg width="528" height="161" viewBox="0 0 528 161" fill="none" xmlns="http://www.w3.org/2000/svg">
<path d="M127.226 37.2616C133.908 31.2103 134.494 20.7204 127.214 15.4029C117.314 8.1713 105.822 3.26684 93.5971 1.1612C75.973 -1.87433 57.8399 1.08178 42.0924 9.55769C26.3449 18.0336 13.8907 31.5407 6.71794 47.9228C1.74242 59.2866 -0.492907 71.5794 0.0907088 83.8255C0.519848 92.8301 9.59786 98.1187 18.3289 95.8742C27.0598 93.6296 32.0136 84.5945 32.8504 75.6185C33.3169 70.615 34.5795 65.6834 36.6229 61.0165C40.8693 51.3181 48.2422 43.3219 57.5648 38.3041C66.8874 33.2863 77.6223 31.5363 88.0559 33.3333C93.0766 34.1981 97.8883 35.8602 102.321 38.2266C110.274 42.4716 120.544 43.3129 127.226 37.2616Z" fill="url(#paint0_linear_36_5889)"/>
<path d="M67.49 142.464C65.7171 151.303 71.4851 160.084 80.4999 160.029C88.4932 159.981 96.4653 158.735 104.145 156.306C117.037 152.228 128.686 144.95 138.003 135.15C147.32 125.351 154.002 113.35 157.425 100.269C159.568 92.0786 160.389 83.6318 159.888 75.2433C159.391 66.9195 151.023 62.0073 142.94 64.0572H81.003C72.9494 64.0572 66.4206 70.5859 66.4206 78.6395C66.4206 86.6932 72.9494 93.222 81.003 93.222H125.842C123.816 100.966 119.86 106.854 114.344 112.656C108.829 118.457 101.933 122.766 94.3003 125.18C91.8866 125.943 89.4242 126.509 86.937 126.877C78.0189 128.194 69.2628 133.625 67.49 142.464Z" fill="url(#paint1_linear_36_5889)"/>
<path d="M71.3271 107.863C74.1 109.174 75.3064 112.5 73.7549 115.145C69.2852 122.767 63.2394 129.375 55.999 134.513C48.7586 139.65 40.5252 143.175 31.8546 144.877C28.845 145.467 26.1041 143.23 25.7826 140.18C25.4612 137.13 27.6836 134.427 30.6813 133.779C37.4573 132.313 43.8866 129.488 49.5715 125.454C55.2565 121.421 60.0459 116.285 63.6668 110.373C65.2687 107.757 68.5542 106.552 71.3271 107.863Z" fill="url(#paint2_linear_36_5889)"/>
<path d="M57.3438 90.7724C60.1167 92.0831 61.3231 95.409 59.7716 98.0547C55.3019 105.677 49.2561 112.284 42.0157 117.422C34.7753 122.56 26.5419 126.084 17.8714 127.786C14.8617 128.377 12.1209 126.14 11.7994 123.09C11.4779 120.039 13.7003 117.336 16.6981 116.688C23.474 115.222 29.9033 112.398 35.5882 108.364C41.2732 104.33 46.0627 99.1941 49.6835 93.2823C51.2855 90.6668 54.5709 89.4617 57.3438 90.7724Z" fill="url(#paint3_linear_36_5889)"/>
<path d="M212.776 111.342C207.023 111.342 201.968 110.082 197.613 107.562C193.284 105.014 189.901 101.398 187.463 96.713C185.052 92.001 183.846 86.426 183.846 79.9881C183.846 73.3584 185.107 67.7013 187.627 63.0167C190.175 58.3047 193.613 54.7022 197.941 52.2092C202.27 49.7162 207.132 48.4697 212.529 48.4697C215.981 48.4697 219.2 48.9765 222.186 49.9902C225.172 50.9764 227.83 52.401 230.158 54.2639C232.487 56.0993 234.377 58.2773 235.829 60.7976C237.308 63.2906 238.254 66.0576 238.665 69.0984H225.556C225.145 67.6465 224.556 66.3589 223.789 65.2357C223.049 64.0851 222.131 63.1263 221.036 62.3592C219.94 61.5647 218.693 60.962 217.296 60.5511C215.926 60.1128 214.406 59.8936 212.735 59.8936C209.612 59.8936 206.858 60.6744 204.475 62.2359C202.119 63.77 200.27 66.0302 198.928 69.0163C197.613 72.0024 196.955 75.6185 196.955 79.8648C196.955 84.1111 197.613 87.7273 198.928 90.7134C200.242 93.6995 202.078 95.987 204.434 97.5759C206.817 99.1375 209.625 99.9183 212.858 99.9183C215.789 99.9183 218.282 99.3977 220.337 98.3567C222.419 97.2883 224.008 95.7952 225.104 93.8776C226.227 91.9599 226.789 89.6998 226.789 87.0972L229.419 87.5081H213.68V77.7691H239.281V85.4946C239.281 90.8641 238.144 95.4802 235.87 99.3429C233.596 103.206 230.46 106.178 226.46 108.26C222.488 110.315 217.926 111.342 212.776 111.342ZM259.129 111.383C256.225 111.383 253.609 110.876 251.28 109.863C248.979 108.822 247.171 107.288 245.856 105.26C244.541 103.233 243.883 100.713 243.883 97.6992C243.883 95.1241 244.349 92.9872 245.28 91.2887C246.212 89.5628 247.486 88.1656 249.102 87.0972C250.718 86.0288 252.554 85.2206 254.609 84.6727C256.663 84.1248 258.841 83.7413 261.142 83.5221C263.8 83.2756 265.937 83.029 267.553 82.7824C269.169 82.5359 270.347 82.166 271.087 81.6729C271.854 81.1524 272.238 80.4127 272.238 79.4539V79.2484C272.238 77.3582 271.635 75.8925 270.429 74.8515C269.251 73.8105 267.58 73.2899 265.416 73.2899C263.142 73.2899 261.32 73.7968 259.951 74.8104C258.608 75.7966 257.718 77.0568 257.28 78.5909L245.486 77.6458C246.089 74.8515 247.267 72.4407 249.02 70.4134C250.773 68.3588 253.033 66.7835 255.8 65.6877C258.595 64.5645 261.827 64.0029 265.498 64.0029C268.046 64.0029 270.484 64.3043 272.813 64.907C275.141 65.5097 277.21 66.4411 279.018 67.7013C280.853 68.9341 282.305 70.5367 283.374 72.5092C284.442 74.4816 284.976 76.8239 284.976 79.5361V110.52H272.854V104.11H272.525C271.786 105.562 270.799 106.836 269.566 107.931C268.334 109 266.854 109.849 265.128 110.479C263.403 111.082 261.403 111.383 259.129 111.383ZM262.786 102.589C264.649 102.589 266.293 102.219 267.717 101.48C269.169 100.713 270.292 99.6991 271.087 98.4389C271.909 97.1513 272.32 95.7131 272.32 94.1241V89.2341C271.936 89.4806 271.388 89.7135 270.676 89.9326C269.991 90.1518 269.224 90.3436 268.375 90.5079C267.526 90.6723 266.676 90.823 265.827 90.96C264.978 91.0695 264.211 91.1791 263.526 91.2887C262.019 91.5079 260.704 91.864 259.581 92.3571C258.458 92.8228 257.581 93.4666 256.951 94.2885C256.348 95.083 256.047 96.0829 256.047 97.2883C256.047 99.0142 256.677 100.329 257.937 101.233C259.197 102.137 260.814 102.589 262.786 102.589ZM318.508 111.26C316.043 111.26 313.947 110.849 312.221 110.027C310.495 109.205 309.084 108.178 307.989 106.945C306.92 105.685 306.085 104.425 305.482 103.165H304.907V110.52H292.414V49.2916H305.112V72.3448H305.482C306.057 71.0846 306.879 69.8107 307.947 68.5231C309.016 67.2356 310.413 66.1671 312.139 65.3179C313.865 64.4412 316.002 64.0029 318.549 64.0029C321.919 64.0029 325.001 64.8796 327.795 66.6329C330.617 68.3588 332.877 70.975 334.576 74.4816C336.274 77.9882 337.123 82.3715 337.123 87.6314C337.123 92.727 336.302 97.0417 334.658 100.576C333.014 104.082 330.781 106.74 327.96 108.548C325.165 110.356 322.015 111.26 318.508 111.26ZM314.481 101.151C316.563 101.151 318.317 100.576 319.741 99.4251C321.166 98.2745 322.248 96.6856 322.987 94.6583C323.727 92.6037 324.097 90.2477 324.097 87.5903C324.097 84.933 323.727 82.6044 322.987 80.6045C322.275 78.5773 321.207 76.9883 319.782 75.8377C318.358 74.6871 316.591 74.1118 314.481 74.1118C312.427 74.1118 310.673 74.6734 309.221 75.7966C307.797 76.8924 306.701 78.454 305.934 80.4812C305.194 82.4811 304.824 84.8508 304.824 87.5903C304.824 90.3025 305.208 92.6722 305.975 94.6994C306.742 96.7267 307.838 98.3156 309.262 99.4662C310.714 100.589 312.454 101.151 314.481 101.151ZM363.629 111.424C358.917 111.424 354.848 110.465 351.424 108.548C347.999 106.63 345.37 103.904 343.534 100.37C341.726 96.8089 340.822 92.6037 340.822 87.7547C340.822 83.0427 341.726 78.906 343.534 75.3446C345.37 71.7832 347.945 69.0026 351.26 67.0027C354.602 65.0028 358.519 64.0029 363.012 64.0029C366.053 64.0029 368.888 64.496 371.518 65.4823C374.148 66.4411 376.45 67.8931 378.422 69.8381C380.395 71.7558 381.929 74.1803 383.024 77.1116C384.12 80.0155 384.668 83.4262 384.668 87.3438V90.7956H345.876V82.9468H378.504L372.587 85.0015C372.587 82.6729 372.231 80.6456 371.518 78.9197C370.806 77.1938 369.738 75.8651 368.313 74.9337C366.916 73.9748 365.176 73.4954 363.094 73.4954C361.012 73.4954 359.245 73.9748 357.793 74.9337C356.369 75.8925 355.273 77.1938 354.506 78.8375C353.739 80.4812 353.355 82.3715 353.355 84.5084V90.0559C353.355 92.5489 353.794 94.6857 354.67 96.4664C355.547 98.2197 356.766 99.5758 358.328 100.535C359.916 101.466 361.738 101.932 363.793 101.932C365.217 101.932 366.505 101.726 367.656 101.315C368.806 100.904 369.792 100.302 370.614 99.5073C371.464 98.7129 372.094 97.754 372.505 96.6308L384.257 97.4116C383.682 100.233 382.477 102.699 380.641 104.808C378.833 106.89 376.491 108.52 373.614 109.698C370.738 110.849 367.409 111.424 363.629 111.424ZM390.134 127.697V64.5782H402.626V72.3448H403.201C403.776 71.0846 404.598 69.8107 405.667 68.5231C406.735 67.2356 408.132 66.1671 409.858 65.3179C411.584 64.4412 413.721 64.0029 416.269 64.0029C419.638 64.0029 422.72 64.8796 425.515 66.6329C428.336 68.3588 430.597 70.975 432.295 74.4816C433.994 77.9882 434.843 82.3715 434.843 87.6314C434.843 92.727 434.021 97.0417 432.377 100.576C430.734 104.082 428.501 106.74 425.679 108.548C422.885 110.356 419.734 111.26 416.228 111.26C413.762 111.26 411.666 110.849 409.94 110.027C408.215 109.205 406.804 108.178 405.708 106.945C404.639 105.685 403.804 104.425 403.201 103.165H402.831V127.697H390.134ZM412.201 101.151C414.283 101.151 416.036 100.576 417.46 99.4251C418.885 98.2745 419.967 96.6856 420.707 94.6583C421.446 92.6037 421.816 90.2477 421.816 87.5903C421.816 84.933 421.446 82.6044 420.707 80.6045C419.995 78.5773 418.926 76.9883 417.502 75.8377C416.077 74.6871 414.31 74.1118 412.201 74.1118C410.146 74.1118 408.393 74.6734 406.941 75.7966C405.516 76.8924 404.42 78.454 403.653 80.4812C402.914 82.4811 402.544 84.8508 402.544 87.5903C402.544 90.3025 402.927 92.6722 403.694 94.6994C404.461 96.7267 405.557 98.3156 406.982 99.4662C408.434 100.589 410.173 101.151 412.201 101.151ZM453.499 111.383C450.595 111.383 447.979 110.876 445.65 109.863C443.349 108.822 441.541 107.288 440.226 105.26C438.911 103.233 438.254 100.713 438.254 97.6992C438.254 95.1241 438.719 92.9872 439.651 91.2887C440.582 89.5628 441.856 88.1656 443.472 87.0972C445.089 86.0288 446.924 85.2206 448.979 84.6727C451.033 84.1248 453.211 83.7413 455.513 83.5221C458.17 83.2756 460.307 83.029 461.923 82.7824C463.539 82.5359 464.717 82.166 465.457 81.6729C466.224 81.1524 466.608 80.4127 466.608 79.4539V79.2484C466.608 77.3582 466.005 75.8925 464.8 74.8515C463.622 73.8105 461.951 73.2899 459.786 73.2899C457.512 73.2899 455.691 73.7968 454.321 74.8104C452.979 75.7966 452.088 77.0568 451.65 78.5909L439.856 77.6458C440.459 74.8515 441.637 72.4407 443.39 70.4134C445.143 68.3588 447.404 66.7835 450.171 65.6877C452.965 64.5645 456.198 64.0029 459.868 64.0029C462.416 64.0029 464.854 64.3043 467.183 64.907C469.512 65.5097 471.58 66.4411 473.388 67.7013C475.224 68.9341 476.676 70.5367 477.744 72.5092C478.812 74.4816 479.347 76.8239 479.347 79.5361V110.52H467.224V104.11H466.895C466.156 105.562 465.169 106.836 463.937 107.931C462.704 109 461.225 109.849 459.499 110.479C457.773 111.082 455.773 111.383 453.499 111.383ZM457.156 102.589C459.019 102.589 460.663 102.219 462.088 101.48C463.539 100.713 464.663 99.6991 465.457 98.4389C466.279 97.1513 466.69 95.7131 466.69 94.1241V89.2341C466.306 89.4806 465.758 89.7135 465.046 89.9326C464.361 90.1518 463.594 90.3436 462.745 90.5079C461.896 90.6723 461.046 90.823 460.197 90.96C459.348 91.0695 458.581 91.1791 457.896 91.2887C456.389 91.5079 455.074 91.864 453.951 92.3571C452.828 92.8228 451.951 93.4666 451.321 94.2885C450.718 95.083 450.417 96.0829 450.417 97.2883C450.417 99.0142 451.047 100.329 452.307 101.233C453.568 102.137 455.184 102.589 457.156 102.589ZM492.948 127.697C491.332 127.725 489.812 127.615 488.387 127.368C486.99 127.122 485.839 126.807 484.935 126.423L487.812 116.931L488.223 117.013C490.36 117.643 492.181 117.78 493.688 117.424C495.222 117.095 496.387 115.89 497.181 113.808L497.921 111.835L481.483 64.5782H494.839L504.331 98.3156H504.824L514.44 64.5782H527.878L510.043 115.493C509.194 117.958 508.03 120.109 506.55 121.944C505.098 123.78 503.263 125.19 501.044 126.177C498.825 127.19 496.126 127.697 492.948 127.697Z" fill="white"/>
<defs>
<linearGradient id="paint0_linear_36_5889" x1="15.9254" y1="127.792" x2="135.949" y2="68.7511" gradientUnits="userSpaceOnUse">
<stop stop-color="#7057FF"/>
<stop offset="1" stop-color="white"/>
</linearGradient>
<linearGradient id="paint1_linear_36_5889" x1="15.9254" y1="127.792" x2="135.949" y2="68.7511" gradientUnits="userSpaceOnUse">
<stop stop-color="#7057FF"/>
<stop offset="1" stop-color="white"/>
</linearGradient>
<linearGradient id="paint2_linear_36_5889" x1="15.9254" y1="127.792" x2="135.949" y2="68.7511" gradientUnits="userSpaceOnUse">
<stop stop-color="#7057FF"/>
<stop offset="1" stop-color="white"/>
</linearGradient>
<linearGradient id="paint3_linear_36_5889" x1="15.9254" y1="127.792" x2="135.949" y2="68.7511" gradientUnits="userSpaceOnUse">
<stop stop-color="#7057FF"/>
<stop offset="1" stop-color="white"/>
</linearGradient>
</defs>
</svg>
